<svg xmlns="http://www.w3.org/2000/svg" viewBox="0 0 100 100" width="200" height="200">
  <g stroke="white" stroke-width="4" fill="none" stroke-linecap="round" stroke-linejoin="round">
    <rect x="25" y="25" width="50" height="50" rx="4"/>
    
    <rect x="35" y="35" width="16" height="16" rx="2"/>
    <path d="M 51 43 L 62 43 L 62 33"/>
    <path d="M 43 51 L 43 62 L 55 62"/>
    <circle cx="60" cy="62" r="3"/>
    <path d="M 60 57 L 60 50"/>
    <circle cx="35" cy="58" r="2"/>
    
    <line x1="40" y1="12" x2="40" y2="25"/>
    <line x1="60" y1="12" x2="60" y2="25"/>
    
    <line x1="35" y1="75" x2="35" y2="88"/>
    <line x1="50" y1="75" x2="50" y2="88"/>
    <line x1="65" y1="75" x2="65" y2="88"/>
    
    <line x1="12" y1="40" x2="25" y2="40"/>
    <line x1="12" y1="60" x2="25" y2="60"/>
    
    <line x1="75" y1="45" x2="88" y2="45"/>
  <line x1="88" y1="45" x2="88" y2="35"/></g>
</svg>